<svg width="48" height="43" viewBox="0 0 48 43" fill="none" xmlns="http://www.w3.org/2000/svg">
<g filter="url(#filter0_d_9_6856)">
<path d="M33 20C33 15.0294 28.9706 11 24 11C19.0294 11 15 15.0294 15 20C15 24.9706 19.0294 29 24 29C28.9706 29 33 24.9706 33 20Z" fill="#E6433C"/>
</g>
<path fill-rule="evenodd" clip-rule="evenodd" d="M24.1062 14.495L23.9198 14.8101C24.1062 14.495 24.1064 14.4951 24.1066 14.4952L24.1072 14.4956L24.1085 14.4964L24.1124 14.4987C24.1154 14.5005 24.1194 14.503 24.1243 14.506C24.1342 14.5121 24.1477 14.5206 24.1645 14.5316C24.1982 14.5536 24.2454 14.5855 24.3036 14.6277C24.4198 14.7119 24.5804 14.8375 24.7652 15.0071C25.1346 15.3463 25.6032 15.8638 26.0078 16.5828C26.8235 18.0321 27.3566 20.26 26.3679 23.4117L26.2874 23.6682H21.3737L21.2925 23.4134L21.6412 23.3021C21.2925 23.4134 21.2924 23.4132 21.2923 23.413L21.2922 23.4126L21.2918 23.4112L21.2905 23.407C21.2894 23.4036 21.2879 23.3987 21.286 23.3926C21.2823 23.3803 21.277 23.3627 21.2704 23.34C21.2573 23.2947 21.239 23.2292 21.2174 23.1456C21.1743 22.9784 21.118 22.7383 21.0638 22.442C20.9555 21.8504 20.8545 21.029 20.8856 20.1126C20.9477 18.2822 21.5416 16.026 23.7101 14.51L23.9033 14.375L24.1062 14.495ZM21.9195 22.9361H25.7469C26.5692 20.1108 26.0624 18.1726 25.3698 16.9419C25.0099 16.3024 24.594 15.8439 24.27 15.5465C24.1354 15.4229 24.0171 15.3275 23.9259 15.2589C22.1814 16.5896 21.673 18.4967 21.6173 20.1375C21.5885 20.9878 21.6823 21.7549 21.7839 22.3102C21.8318 22.5716 21.8811 22.7848 21.9195 22.9361ZM23.7331 15.1249C23.7327 15.1247 23.7325 15.1246 23.7326 15.1246L23.7329 15.1248L23.7331 15.1249Z" fill="white"/>
<path fill-rule="evenodd" clip-rule="evenodd" d="M23.9499 17.968C23.5691 17.968 23.2666 18.2727 23.2666 18.6412C23.2666 19.0096 23.5691 19.3143 23.9499 19.3143C24.3306 19.3143 24.6332 19.0096 24.6332 18.6412C24.6332 18.2727 24.3306 17.968 23.9499 17.968ZM22.5344 18.6412C22.5344 17.8617 23.1715 17.2358 23.9499 17.2358C24.7282 17.2358 25.3653 17.8617 25.3653 18.6412C25.3653 19.4206 24.7282 20.0465 23.9499 20.0465C23.1715 20.0465 22.5344 19.4206 22.5344 18.6412Z" fill="white"/>
<path fill-rule="evenodd" clip-rule="evenodd" d="M22.0576 22.9355H25.788V24.5585H22.0576V22.9355ZM22.7898 23.6677V23.8263H25.0558V23.6677H22.7898Z" fill="white"/>
<path fill-rule="evenodd" clip-rule="evenodd" d="M21.0456 19.375L21.4502 19.9852L20.3082 20.7422L20.8221 23.5113L21.4084 23.0216L21.8777 23.5836L20.3306 24.8755L19.5 20.3996L21.0456 19.375Z" fill="white"/>
<path fill-rule="evenodd" clip-rule="evenodd" d="M27.4503 20.7422L26.3083 19.9852L26.7128 19.375L28.2584 20.3996L27.4286 24.8754L25.8809 23.5837L26.35 23.0216L26.9369 23.5114L27.4503 20.7422Z" fill="white"/>
<defs>
<filter id="filter0_d_9_6856" x="0" y="0" width="48" height="48" filterUnits="userSpaceOnUse" color-interpolation-filters="sRGB">
<feFlood flood-opacity="0" result="BackgroundImageFix"/>
<feColorMatrix in="SourceAlpha" type="matrix" values="0 0 0 0 0 0 0 0 0 0 0 0 0 0 0 0 0 0 127 0" result="hardAlpha"/>
<feOffset dy="4"/>
<feGaussianBlur stdDeviation="7.5"/>
<feComposite in2="hardAlpha" operator="out"/>
<feColorMatrix type="matrix" values="0 0 0 0 0 0 0 0 0 0 0 0 0 0 0 0 0 0 0.25 0"/>
<feBlend mode="normal" in2="BackgroundImageFix" result="effect1_dropShadow_9_6856"/>
<feBlend mode="normal" in="SourceGraphic" in2="effect1_dropShadow_9_6856" result="shape"/>
</filter>
</defs>
</svg> 