<svg width="38" height="38" viewBox="0 0 38 38" fill="none" xmlns="http://www.w3.org/2000/svg">
<g filter="url(#filter0_d_9_6847)">
<path d="M28 15C28 10.0294 23.9706 6 19 6C14.0294 6 10 10.0294 10 15C10 19.9706 14.0294 24 19 24C23.9706 24 28 19.9706 28 15Z" fill="#1C82BB"/>
<path fill-rule="evenodd" clip-rule="evenodd" d="M19.0533 19.3134C21.5492 19.3134 23.5726 17.2901 23.5726 14.7941C23.5726 12.2982 21.5492 10.2748 19.0533 10.2748C16.5574 10.2748 14.534 12.2982 14.534 14.7941C14.534 17.2901 16.5574 19.3134 19.0533 19.3134ZM19.0533 20.0463C21.954 20.0463 24.3054 17.6948 24.3054 14.7941C24.3054 11.8935 21.954 9.54199 19.0533 9.54199C16.1526 9.54199 13.8011 11.8935 13.8011 14.7941C13.8011 17.6948 16.1526 20.0463 19.0533 20.0463Z" fill="white"/>
<path fill-rule="evenodd" clip-rule="evenodd" d="M21.7728 10.5122L22.3614 10.9489L19.6347 14.624L24.1287 14.7029L24.1159 15.4356L18.197 15.3318L21.7728 10.5122Z" fill="white"/>
</g>
<defs>
<filter id="filter0_d_9_6847" x="0" y="0" width="38" height="38" filterUnits="userSpaceOnUse" color-interpolation-filters="sRGB">
<feFlood flood-opacity="0" result="BackgroundImageFix"/>
<feColorMatrix in="SourceAlpha" type="matrix" values="0 0 0 0 0 0 0 0 0 0 0 0 0 0 0 0 0 0 127 0" result="hardAlpha"/>
<feOffset dy="4"/>
<feGaussianBlur stdDeviation="5"/>
<feComposite in2="hardAlpha" operator="out"/>
<feColorMatrix type="matrix" values="0 0 0 0 0 0 0 0 0 0 0 0 0 0 0 0 0 0 0.25 0"/>
<feBlend mode="normal" in2="BackgroundImageFix" result="effect1_dropShadow_9_6847"/>
<feBlend mode="normal" in="SourceGraphic" in2="effect1_dropShadow_9_6847" result="shape"/>
</filter>
</defs>
</svg> 